<?xml version="1.0" encoding="UTF-8"?>
<svg width="1200pt" height="1200pt" version="1.1" viewBox="0 0 1200 1200" xmlns="http://www.w3.org/2000/svg">
 <path d="m1173.2 230.27c-24.723-47.738-109.04-33.074-158.7-13.582-81.852 32.301-261.7 159.52-382.19 355.62-5.4922-13.848-11.711-24.234-18.43-30.453 13.082-67.105 74.215-110.73 108.68-168.89 40.535-68.344 43.52-156.39 8.5508-226.44 32.965 71.02 26.969 157.83-14.262 222.93-31.703 50.266-80.164 84.395-105.57 141.06-3.5977 8.0195-6.4727 16.473-8.6719 25.133-1.0273-0.19531-2.0508-0.55078-3.0898-0.55078-1.043 0-2.0586 0.35156-3.0898 0.55078-2.1992-8.6602-5.0742-17.117-8.6758-25.133-25.574-57.031-73.871-90.789-105.57-141.06-41.23-65.098-47.227-151.91-14.262-222.93-34.973 70.043-31.988 158.09 8.5508 226.44 34.641 58.449 95.586 101.71 108.68 168.89-6.7148 6.2188-12.938 16.605-18.43 30.453-68.297-111.15-142.36-201.66-303.46-312.48-56.035-38.473-142.98-77.68-206.81-56.102-36.652 12.641-41.273 49.844-37.027 88.387 11.363 83.719 61.539 138.21 85.523 197.24 25.016 62.145 3.7539 124.1 54.953 169.88 28.344 25.023 61.754 19.906 102.92 19.008-79.672 9.2422-94.402 39.809-114.31 81.004-19.664 41.238-25.801 70.18-10.941 129.21 12.645 46.418 40.195 95.168 87.129 128.9 32.438 22.551 55.703 27.133 75.496 34.84 19.922 7.3047 44.055 25.934 87.922 20.277 56.77-7.2656 80.551-43.172 103.37-88.875 22.066-44.77 39.586-93.387 61.602-137.03 10.184 51.805 27.164 85.797 46.422 85.797 19.254 0 36.238-33.992 46.422-85.797 25.84 51.223 54.598 132.39 82.727 175.39 63.516 98.016 184.86 23.547 152.4 37.977 45.715-20.156 24.105-8.2617 55.148-21.395 102.55-43.508 163.58-175.95 114.3-279.29-20.914-43.289-34.723-71.773-114.31-81.004 11.223 0.24609 22.566 0.49219 33.641 0.73438 127.31 2.0195 96.617-121 124.25-189.62 19.332-47.605 117.02-180.65 79.113-259.09zm-724.57 749.93c-31.023 47.863-70.719 55.812-101.43 40.262-59.32-27.609-117.27-31.145-160.51-117.77-32.27-62.527-23.684-101.05-11.039-137.77 12.762-37.461 19.992-65.953 113.86-87.266 21.883-0.47656 44.02-0.96094 66.465-1.4492-151.5-13.191-161.64-15.527-176.46-28.242-39.777-33.168-24.629-93.992-33.969-143.89-11.387-60.238-52.121-111.73-71.312-174.37-4.5742-14.91-7.9922-30.141-9.375-45.449-3.3164-36.496 1.7305-38.492 34.355-37.402 51.156 1.7109 99.117 26.113 142 54.434 181.66 120.97 233.42 179.61 322.35 279.31-19.172 55.797-27.352 157.62-13.859 246.53-41.508 48.492-66.406 100.18-101.08 153.07zm676.16-650.5c-19.598 63.957-59.688 112.87-71.312 174.37-9.3281 49.836 5.8086 110.72-33.969 143.89-14.539 12.477-19.527 14.578-176.46 28.242 22.445 0.49219 44.582 0.97266 66.465 1.4492 96.148 21.832 102.49 53.906 113.86 87.266 12.957 37.637 21.895 73.957-11.039 137.77-40.395 80.93-87.66 83.867-160.51 117.77-24.344 12.328-65.531 6.3711-88.035-21.445-29.133-35.555-64.176-113.13-114.47-171.89 13.414-88.402 5.5508-190.05-13.859-246.53 86.023-96.445 138.74-157.04 322.35-279.31 46.691-30.832 108.39-61.602 164.47-53.562 3.3828 0.48828 6.2188 1.1523 8.125 3.0938 11.195 11.703-0.55859 62.445-5.6055 78.891z"/>
 <path d="m1017.5 353.86c-22.578-1.8438-78.488 7.2422-106.71 29.891-29.16 23.219-22.176 29.449-150.61 179.63-27.965 32.617-44.477 51.875-44.477 51.875 196.89-197.83 180.93-215.15 226.87-232.51 24.926-10.066 71.395-14.102 74.297-12.594-0.089844 37.285-44.777 91.785-59.203 136.27-18.434 54.668 25.648 107.86-99.648 105.62 53.375 7.5234 103.73 0.12891 104.63-54.004-1.1289-49.711 23.543-78.223 46.973-120.75 14.738-26.344 39.164-81.105 7.8789-83.441z"/>
 <path d="m940.29 819.91c-3.2422 13.918-8.8594 27.262-13.957 40.672-15.609 39.289-14.723 63.16-72.926 63.695-39.012 0.019531-58.008 4.9023-148.23-143.61 14.398 36.258 57.578 119.88 86.836 143.82 18.969 15.777 46.641 16.414 71.25 15.566 46.047-2.7812 57.102-20.715 69.133-54.082 12.207-35.887 31.176-78.141 14.625-109.13-18.648-33.223-56.457-34.109-92.168-33.504 55.691 4.3164 98.875 20.152 85.434 76.57z"/>
 <path d="m864.04 810.05c-6.3398 25.652-37.633 37.988-57.707 33.395-24.508-7.9062-33.48-44.879-40.273-69.266 1.6211 34.262 9.707 81.812 46.102 84.234 71.172 6.5742 109.3-94.762 2.0625-111.8 30.141 15.078 59.203 29.672 49.816 63.438z"/>
 <path d="m885.64 588.24c13.691-15.066 10.098-39.895 18.84-61.488 8.5-23.188 24.418-34.219 12.605-44.543-4.1641-3.7148-12.246-3.6797-19.176-1.9258-44.297 11.516-61.961 57.238-136.45 133.14-7.6758 7.7344-12.086 12.184-12.086 12.184 91.691-66.633 113.07-121.66 152.67-129.74l0.058594 0.046875-0.023438 0.035156-0.011719 0.007813h-0.003906s-0.023437 0.035156 0.019532-0.035156c-2.7656 5.5977-12 18.145-16.117 42.594-7.5273 52.324 5.2344 40.828-63.195 67.539 25.93-3.7812 52.609-6.0977 62.871-17.812z"/>
 <path d="m241.38 506.43c-14.141-43.625-59.113-99.051-59.203-136.27 3.5781-1.8516 50.707 3.0664 74.297 12.594 39.086 14.77 47.723 43.668 127.58 130.12 30.676 33.254 64.113 67.039 99.289 102.38 0 0-16.512-19.258-44.477-51.875-147.27-172.21-137.45-190.49-208.36-204.24-10.293-1.9961-38.996-6.0938-48.957-5.2773-31.582 2.3555-7.5742 55.824 7.8711 83.434 23.559 42.762 48.102 71.051 46.973 120.75 0.89453 53.953 51.156 61.543 104.63 54.004-124.46 2.2188-81.52-51.875-99.641-105.62z"/>
 <path d="m345.64 924.27c-58.086-0.53516-57.227-24.184-72.926-63.695-29.051-76.395-23.578-109.88 71.477-117.24-111.02-1.8867-110.81 44.828-77.547 142.63 2.3164 6.4258 4.2891 13.02 7.6406 20.199 19.598 43.203 104.41 41.871 132.74 18.316 26.578-21.754 68.656-98.055 86.836-143.82-89.484 147.31-107.81 143.62-148.22 143.61z"/>
 <path d="m324.14 779.11c-30.051 55.809 53.781 103 86.25 67.77 18.789-18.973 21.34-46.141 22.594-72.699-4.7695 17.605-9 34.426-17.43 48.52-5.0586 8.3711-13.285 17.66-22.848 20.746-42.062 9.6289-78.516-40.285-48.266-71.457 10.363-11.023 25.918-18.145 40.375-25.375-10.039 1.5938-23.441 3.25-39.176 11.5-7.6914 4.2344-16.074 10.812-21.5 20.996z"/>
 <path d="m313.07 538.5c-4.2344-25.164-15.316-40.758-16.117-42.594 0.042969 0.074219 0.019531 0.035156 0.019531 0.035156h-0.003906l-0.011719-0.007812-0.019531-0.035156 0.058594-0.046875c36.82 7.5078 66.934 67.438 152.67 129.74 0 0-4.4102-4.4492-12.086-12.184-7.7227-7.8672-18.781-19.309-31.82-33.859-35.809-39.477-65.344-89.062-104.63-99.277-18.312-4.6328-29.18 5.0234-19.453 21.328 1.1211 1.8203 5.7695 9.3828 4.6484 7.5625 24.684 42.988 5.7812 80.445 47.102 89.59 14.246 2.9062 28.551 5.207 42.844 7.2891-67.707-26.43-55.523-14.18-63.199-67.539z"/>
</svg>
