<?xml version="1.0" encoding="UTF-8"?>
<svg width="1200pt" height="1200pt" version="1.1" viewBox="0 0 1200 1200" xmlns="http://www.w3.org/2000/svg">
 <path d="m148.15 490.54c-37.859-54.32-85.598-111.93-108.64-172.84-14.816-42.797-37.859-118.52-19.754-156.38 26.336-52.676 97.121 4.9375 49.383 23.047-4.9375 1.6445-8.2305 1.6445-9.875 1.6445-21.398-6.5859-4.9375-18.105-16.461-29.629-13.168 11.523-3.293 54.32 31.277 41.152 26.336-9.875 27.984-42.797 11.523-60.906-21.398-23.047-62.551-8.2305-75.719 16.461-23.047 42.797 0 123.46 18.105 171.2 23.047 62.551 49.383 110.29 100.41 176.13 1.6445 1.6445 3.293 3.293 4.9375 4.9375-3.293 6.5859-4.9375 11.523-8.2305 16.461-4.9375 11.523-8.2305 23.047-8.2305 29.629 0 19.754 4.9375 39.508 14.816 55.969 6.5859 9.875 1.6445 11.523 0 21.398 0 4.9375-1.6445 24.691 4.9375 9.875 3.293-6.5859 4.9375-9.875 13.168-9.875 3.293 0 6.5859 1.6445 9.875 3.293 4.9375 4.9375 9.875 9.875 8.2305 18.105-4.9375 13.168-24.691 1.6445-26.336 8.2305 0 1.6445 8.2305 4.9375 9.875 4.9375l1.6445 1.6445c11.523 4.9375 19.754 8.2305 31.277 1.6445 3.293-1.6445 6.5859-4.9375 9.875-8.2305 3.293-3.293 9.875-8.2305 13.168-9.875 1.6445-1.6445 3.293-1.6445 4.9375 0 3.293 4.9375 11.523 19.754 11.523 26.336 0 14.816 3.293 39.508 18.105 44.445 18.105 3.293 0-26.336 21.398-31.277 18.105-3.293 51.027 11.523 59.258 31.277 4.9375 14.816 3.293 19.754 4.9375 34.566 1.6445 9.875 6.5859 23.047 9.875 32.922 1.6445 6.5859 9.875 32.922 18.105 31.277 14.816-1.6445 9.875-41.152 27.984-36.215 6.5859 1.6445 14.816 6.5859 21.398 9.875 16.461 8.2305 21.398 14.816 27.984 31.277 1.6445 4.9375 1.6445 9.875 3.293 13.168 3.293 13.168 4.9375 19.754 4.9375 32.922 0 11.523 1.6445 34.566 18.105 21.398 16.461-11.523 13.168-13.168 34.566-14.816 8.2305-1.6445 21.398-3.293 29.629 0 3.293 0 6.5859 1.6445 8.2305 4.9375 6.5859 9.875 27.984 42.797 29.629 51.027 1.6445 9.875 0 9.875-6.5859 16.461-13.168 18.105-13.168 29.629 14.816 24.691 6.5859 0 11.523-1.6445 18.105-1.6445 16.461-3.293 24.691-13.168 37.859-18.105 26.336-8.2305 31.277-3.293 52.676 11.523 16.461 11.523 27.984 19.754 46.09 27.984 13.168 6.5859 14.816 13.168 21.398 26.336 6.5859 8.2305 3.293 23.047 8.2305 27.984 8.2305 6.5859 19.754-19.754 21.398-24.691 0-3.293 3.293-24.691 3.293-24.691 1.6445 0 23.047 6.5859 26.336 8.2305 26.336 9.875 64.199 16.461 82.305 37.859 4.9375 6.5859 16.461 27.984 19.754 29.629 8.2305 6.5859 13.168-18.105 16.461-23.047 11.523-16.461 36.215 3.293 51.027-60.906 1.6445-8.2305 19.754-3.293 39.508-4.9375 21.398-1.6445 47.738-8.2305 67.488-21.398 34.566-14.816 100.41-72.43 113.58-103.7 8.2305-14.816 6.5859-31.277-6.5859-44.445-21.398-23.047-60.906 6.5859-52.676 31.277 1.6445 9.875 11.523 13.168 19.754 14.816 13.168 3.293 8.2305-6.5859-1.6445-6.5859-4.9375 0-11.523-8.2305-11.523-11.523-1.6445-16.461 24.691-37.859 39.508-21.398 36.215 37.859-49.383 92.18-75.719 113.58-42.797 26.336-74.074 44.445-128.39 31.277-1.6445-16.461-3.293-32.922-13.168-49.383-3.293-6.5859 0-9.875-1.6445-16.461-1.6445-6.5859-8.2305-6.5859-13.168-8.2305 1.6445-6.5859 1.6445-8.2305 6.5859-14.816 26.336-44.445 70.781-60.906 107-92.18 14.816-11.523 24.691-24.691 32.922-42.797 6.5859-13.168 3.293-27.984-6.5859-39.508-24.691-24.691-64.199 16.461-42.797 36.215 14.816 13.168 29.629-6.5859 18.105-16.461l-1.6445 4.9375c3.293 1.6445-1.6445 16.461-11.523 6.5859-16.461-14.816 24.691-52.676 37.859-14.816 9.875 26.336-34.566 60.906-70.781 85.598-34.566 23.047-64.199 39.508-80.66 80.66-4.9375-1.6445-31.277-16.461-34.566-18.105-4.9375-6.5859 3.293-16.461-9.875-16.461-8.2305-1.6445-11.523 0-19.754-3.293-6.5859-1.6445-9.875-1.6445-16.461-4.9375h-1.6445c-6.5859-4.9375-6.5859-3.293-6.5859-11.523-1.6445-8.2305-6.5859-6.5859-13.168-6.5859-16.461 3.293-16.461 4.9375-31.277-3.293-3.293-1.6445-8.2305-1.6445-11.523-3.293-6.5859-3.293-3.293-11.523-8.2305-14.816-3.293-4.9375-13.168 1.6445-16.461 3.293-8.2305 1.6445-14.816 1.6445-21.398-1.6445-1.6445 0-3.293-1.6445-6.5859-3.293-6.5859-4.9375-4.9375-1.6445-9.875-9.875-1.6445-4.9375-6.5859-4.9375-11.523-3.293-8.2305 3.293-13.168 8.2305-23.047 3.293-6.5859-3.293-13.168-6.5859-18.105-11.523-8.2305-4.9375-3.293-11.523-6.5859-16.461-3.293-6.5859-14.816-1.6445-21.398-3.293-6.5859 0-14.816-4.9375-21.398-6.5859-16.461-8.2305-23.047-21.398-34.566-32.922-3.293-3.293-8.2305-6.5859-8.2305-11.523-1.6445-4.9375 1.6445-11.523-6.5859-13.168-8.2305-3.293-13.168-1.6445-23.047-8.2305-8.2305-4.9375-14.816-8.2305-24.691-11.523-6.5859-3.293-6.5859-6.5859-11.523-14.816-4.9375-8.2305-9.875-16.461-16.461-24.691-4.9375-4.9375 0-8.2305 0-13.168s-11.523-6.5859-14.816-8.2305c-11.523-1.6445-13.168-4.9375-23.047-11.523-4.9375-3.293-11.523-6.5859-16.461-9.875-3.293-1.6445-13.168-18.105-16.461-21.398-1.6445-3.293-6.5859-11.523-8.2305-13.168-3.293-6.5859 6.5859-13.168-8.2305-16.461-8.2305-3.293-13.168-1.6445-21.398-6.5859-16.461-8.2305-18.105-9.875-31.277-23.047-6.5859-4.9375-1.6445-8.2305-3.293-14.816-1.6445-9.875-18.105-6.5859-27.984-9.875-3.293 0-9.875-4.9375-13.168-6.5859-8.2305-4.9375-16.461-8.2305-26.336-13.168-6.5859-4.9375-4.9375-6.5859-6.5859-13.168 0-9.875-11.523-6.5859-18.105-4.9375-6.5859 3.293-11.523 4.9375-18.105 8.2305-4.9375 1.6445-8.2305 1.6445-11.523 0-4.9375 0-9.875 0-14.816-1.6445-23.047-6.5859-16.461-128.39-11.523-159.67 9.875-52.676 24.691-111.93 75.719-107 14.816 1.6445 13.168 14.816 11.523 29.629 0 19.754-16.461 23.047-24.691 18.105-8.2305-4.9375-9.875-19.754-11.523-21.398-6.5859 8.2305-6.5859 29.629 16.461 32.922 18.105 3.293 29.629-8.2305 32.922-23.047 3.293-24.691 1.6445-46.09-23.047-49.383-60.906-6.5859-80.66 57.613-92.18 118.52-11.523 64.199-8.2305 98.766-1.6445 162.96 0 4.9375-6.5859 4.9375-13.168 6.5859-14.816 6.5859-23.047 13.168-34.566 24.691zm215.64 32.922c-19.754 14.816-32.922 24.691-44.445 46.09 4.9375-4.9375 9.875-11.523 16.461-16.461 6.5859-6.5859 23.047-23.047 34.566-23.047 8.2305 4.9375 16.461 9.875 24.691 14.816 4.9375 1.6445 6.5859 1.6445 1.6445 3.293-49.383 23.047-64.199 39.508-92.18 83.949-4.9375 6.5859-8.2305 11.523-13.168 18.105v1.6445c-4.9375 6.5859-14.816 29.629-23.047 31.277-31.277 4.9375-34.566-13.168-49.383-34.566-13.168-18.105-4.9375-3.293-23.047-9.875-13.168-4.9375-21.398-13.168-32.922-21.398-8.2305-6.5859-9.875 1.6445-16.461-1.6445-1.6445 0-4.9375-6.5859-6.5859-8.2305-3.293-6.5859-6.5859-13.168-9.875-21.398-8.2305-16.461-8.2305-34.566-1.6445-51.027 1.6445-6.5859 3.293-11.523 6.5859-18.105 8.2305 18.105 4.9375 14.816 0 21.398 3.293-3.293 8.2305-1.6445 13.168 1.6445 3.293 3.293 4.9375 9.875 1.6445 14.816-4.9375 3.293-11.523 4.9375-16.461 0-1.6445-1.6445-3.293-4.9375-3.293-9.875-4.9375 13.168 3.293 32.922 18.105 34.566 8.2305 16.461 16.461 32.922 11.523 3.293 0-11.523 8.2305-8.2305 6.5859-27.984 0-13.168-8.2305-16.461-11.523-19.754-4.9375-4.9375-3.293-11.523-4.9375-19.754 6.5859-4.9375 11.523-13.168 3.293-19.754-1.6445-1.6445 13.168-11.523 14.816-14.816-1.6445 11.523 0 74.074 1.6445 82.305 3.293 8.2305 31.277 47.738 21.398 29.629-21.398-44.445-11.523-37.859-14.816-82.305-1.6445-16.461 0-18.105 4.9375-32.922 4.9375-9.875 26.336-11.523 31.277-8.2305-9.875 23.047-21.398 42.797-19.754 69.137 4.9375-9.875 9.875-31.277 19.754-46.09 6.5859-13.168 14.816-27.984 31.277-27.984 3.293 0 11.523 0 13.168 1.6445 1.6445 1.6445-6.5859 11.523-8.2305 13.168-36.215 46.09-41.152 65.844-42.797 125.1-1.6445 36.215 6.5859-24.691 8.2305-32.922 8.2305-32.922 23.047-70.781 49.383-95.473 3.293-1.6445 14.816-11.523 18.105-8.2305 3.293 3.293 3.293 3.293 6.5859 4.9375l3.293 3.293c6.5859 3.293-4.9375 9.875-11.523 18.105-3.293 3.293-29.629 47.738-8.2305 23.047 8.2305-9.875 26.336-34.566 41.152-29.629 3.293 0 16.461 4.9375 16.461 8.2305-1.6445 1.6445-9.875 8.2305-11.523 11.523-26.336 23.047-49.383 42.797-65.844 72.43-21.398 47.738 4.9375 105.35 9.875 92.18 3.293-9.875-31.277-34.566 8.2305-100.41 3.293-4.9375 13.168-18.105 18.105-21.398 6.5859-4.9375 6.5859 3.293 6.5859 8.2305 0 18.105-8.2305 29.629-14.816 46.09 0 3.293-4.9375 16.461-3.293 19.754 0 0 1.6445 1.6445 1.6445 0 4.9375-11.523 6.5859-19.754 11.523-29.629 4.9375-13.168 8.2305-16.461 11.523-29.629 3.293-13.168 6.5859-27.984 14.816-37.859 3.293-3.293 6.5859-4.9375 9.875-6.5859 8.2305-3.293 16.461-6.5859 24.691-8.2305 3.293-1.6445 3.293 0 4.9375 3.293l8.2305 8.2305zm577.78 393.41c1.6445-3.293 1.6445-13.168 3.293-14.816 1.6445-1.6445 6.5859 0 6.5859 1.6445 3.293 1.6445 1.6445 9.875 3.293 13.168 0 4.9375 1.6445 8.2305 1.6445 14.816-1.6445 14.816-8.2305 27.984-16.461 41.152-4.9375 9.875-23.047 23.047-31.277 31.277-26.336 23.047-18.105 19.754 4.9375 3.293 3.293-3.293 11.523-9.875 14.816-9.875 4.9375-1.6445 6.5859-1.6445 4.9375 3.293 0 3.293-1.6445 14.816 3.293 14.816 3.293 0 6.5859-8.2305 6.5859-9.875 4.9375-8.2305 4.9375-9.875 8.2305-18.105 1.6445-4.9375 1.6445-8.2305 4.9375-13.168 3.293 3.293 6.5859 3.293 9.875 4.9375 4.9375 3.293 1.6445 11.523 0 16.461-9.875 31.277-23.047 44.445-55.969 41.152-27.984-1.6445-46.09-24.691-69.137-27.984-39.508-4.9375-11.523-16.461 8.2305-39.508 13.168-18.105 19.754-34.566 29.629-55.969 1.6445-4.9375 3.293-6.5859 8.2305-1.6445 3.293 4.9375 8.2305 11.523 4.9375 18.105 0 6.5859-6.5859 18.105-9.875 23.047-1.6445 3.293-9.875 18.105-4.9375 19.754 3.293 0 8.2305-6.5859 9.875-9.875 4.9375-8.2305 9.875-16.461 14.816-23.047 6.5859-11.523 6.5859-18.105 3.293-29.629-1.6445-6.5859-11.523-32.922-8.2305-37.859 3.293-1.6445 9.875 3.293 11.523 3.293 1.6445 1.6445 3.293 3.293 6.5859 4.9375 8.2305 4.9375 9.875 13.168 11.523 24.691 0 14.816-6.5859 31.277-14.816 44.445-3.293 6.5859-6.5859 11.523-11.523 18.105-4.9375 8.2305-11.523 14.816-16.461 21.398-11.523 16.461 16.461-6.5859 18.105-8.2305 3.293-3.293 6.5859-6.5859 9.875-9.875 8.2305-11.523 26.336-39.508 29.629-54.32zm27.984 29.629v18.105c-11.523-3.293-4.9375-11.523-3.293-24.691 0-13.168 1.6445 3.293 3.293 6.5859zm-385.18-223.87c-42.797 29.629-69.137 54.32-93.828 102.06-11.523 21.398 23.047-16.461 24.691-18.105l4.9375-4.9375c9.875-11.523 16.461-23.047 27.984-34.566 13.168-14.816 26.336-27.984 42.797-39.508 6.5859 6.5859 9.875 8.2305 13.168 16.461-23.047 26.336-34.566 39.508-60.906 62.551-9.875 8.2305-29.629 27.984-21.398 42.797 14.816-1.6445 23.047-42.797 32.922-21.398 3.293 11.523-6.5859 69.137 6.5859 18.105 8.2305-36.215 14.816-51.027 39.508-80.66 3.293-4.9375 6.5859-8.2305 9.875-11.523 1.6445-3.293 4.9375 0 9.875 1.6445 6.5859 3.293 11.523 6.5859 19.754 11.523-8.2305 9.875-16.461 19.754-23.047 29.629-21.398 26.336-26.336 34.566-37.859 67.488-3.293 9.875-6.5859 19.754-9.875 31.277-9.875 26.336-9.875 14.816-24.691-6.5859-19.754-31.277-23.047-16.461-52.676-23.047-11.523-3.293-19.754-9.875-31.277-13.168-11.523-4.9375-14.816-6.5859-9.875-19.754 4.9375-11.523 14.816-21.398 23.047-31.277 24.691-32.922 26.336-44.445 60.906-72.43 1.6445-1.6445 4.9375-3.293 6.5859-4.9375 9.875-6.5859 18.105-13.168 29.629-16.461 1.6445-1.6445 4.9375-1.6445 6.5859-3.293 3.293 4.9375 0 8.2305 3.293 14.816 1.6445 0 1.6445 1.6445 3.293 3.293zm-83.949-79.012c3.293 6.5859 1.6445 4.9375-9.875 11.523-26.336 14.816-80.66 47.738-93.828 75.719-8.2305 18.105 54.32-41.152 55.969-42.797 16.461-13.168 36.215-23.047 55.969-31.277 3.293 3.293 6.5859 8.2305 6.5859 13.168-24.691 16.461-79.012 54.32-93.828 79.012 18.105-8.2305 24.691-18.105 41.152-27.984-8.2305 27.984-36.215 98.766 0 23.047 9.875-18.105 16.461-26.336 31.277-41.152 6.5859-4.9375 11.523-9.875 19.754-13.168l8.2305-6.5859c6.5859-3.293 11.523 0 16.461 3.293 6.5859 3.293 11.523 4.9375 16.461 9.875 3.293 1.6445 3.293 0-1.6445 3.293-27.984 16.461-49.383 31.277-67.488 59.258-13.168 16.461-24.691 36.215-37.859 52.676-3.293 4.9375-4.9375 4.9375-9.875 4.9375-4.9375-9.875-11.523-24.691-23.047-29.629-9.875-3.293-14.816-4.9375-23.047-9.875s-14.816-9.875-23.047-9.875c-18.105 3.293-29.629-1.6445-34.566-19.754v-1.6445c-3.293-16.461-1.6445-29.629-14.816-42.797-24.691-18.105-37.859-26.336-16.461-55.969 13.168-16.461 41.152-55.969 59.258-65.844 13.168-8.2305 32.922-14.816 47.738-21.398 1.6445 0 3.293-1.6445 6.5859-1.6445 1.6445 4.9375 4.9375 6.5859 4.9375 9.875 1.6445 1.6445-4.9375 3.293-6.5859 3.293-3.293 1.6445-4.9375 1.6445-8.2305 3.293-24.691 9.875-64.199 54.32-77.367 77.367-8.2305 13.168 29.629-24.691 29.629-26.336 23.047-26.336 32.922-37.859 70.781-47.738 3.293 4.9375 6.5859 8.2305 8.2305 14.816-39.508 18.105-42.797 14.816-69.137 57.613-37.859 65.844-8.2305 24.691 13.168-6.5859 13.168-16.461 34.566-34.566 55.969-41.152 4.9375-1.6445 6.5859-1.6445 13.168 0 9.875 4.9375 14.816 9.875 23.047 16.461 4.9375 3.293 3.293 0-1.6445 3.293-32.922 18.105-70.781 44.445-95.473 70.781-9.875 11.523-18.105 23.047-24.691 36.215-1.6445 3.293-3.293 3.293 0 6.5859 26.336-18.105 41.152-36.215 64.199-57.613 21.398-21.398 42.797-34.566 70.781-42.797 6.5859-1.6445 6.5859 0 9.875 4.9375 1.6445 1.6445 1.6445 1.6445 3.293 3.293zm218.93 330.86c-1.6445-14.816 39.508-118.52 47.738-141.56 3.293-8.2305 3.293-13.168 11.523-18.105 4.9375-3.293 4.9375 0 4.9375 4.9375 3.293 9.875 1.6445 16.461 0 27.984-1.6445 11.523-4.9375 26.336-8.2305 36.215-1.6445 3.293-39.508 98.766-9.875 52.676 13.168-21.398 36.215-64.199 34.566-88.891 0-6.5859-1.6445-14.816-3.293-21.398 6.5859 1.6445 18.105 6.5859 19.754 11.523 3.293 8.2305 0 39.508-1.6445 49.383-3.293 8.2305-23.047 60.906-19.754 65.844 11.523-4.9375 8.2305-18.105 23.047-3.293 4.9375 3.293 6.5859-16.461 8.2305-19.754 3.293-13.168 6.5859-24.691 11.523-36.215 6.5859-19.754 8.2305-27.984 6.5859-47.738-1.6445-1.6445-1.6445-1.6445-1.6445-3.293 4.9375 1.6445 6.5859 1.6445 11.523 4.9375 3.293 3.293 4.9375 3.293 8.2305 4.9375 16.461 8.2305-3.293 70.781-9.875 85.598-6.5859 14.816-34.566 72.43-55.969 59.258-6.5859-3.293-23.047-21.398-29.629-21.398-4.9375 0-18.105 4.9375-24.691 6.5859-4.9375 1.6445-16.461 4.9375-19.754 1.6445s-3.293-6.5859-3.293-9.875zm-47.738-21.398c-24.691-18.105-11.523-16.461-42.797-8.2305-9.875 1.6445-8.2305 0-13.168 4.9375-8.2305-1.6445-52.676-16.461-47.738-27.984 13.168-24.691 19.754-41.152 31.277-65.844 14.816-29.629 29.629-46.09 52.676-69.137 1.6445-1.6445 13.168-11.523 14.816-9.875 0 1.6445 0 3.293 3.293 6.5859 8.2305 6.5859 0 11.523-6.5859 21.398-23.047 32.922-42.797 60.906-52.676 100.41 11.523-11.523 36.215-44.445 42.797-60.906 9.875-21.398 13.168-32.922 32.922-49.383 3.293 1.6445 14.816 4.9375 16.461 8.2305 1.6445 3.293-3.293 13.168-4.9375 16.461 0 1.6445-1.6445 3.293-1.6445 4.9375-16.461 47.738-29.629 41.152-54.32 79.012-9.875 16.461-24.691 34.566 4.9375 31.277 21.398-1.6445 16.461-32.922 36.215-36.215 13.168 29.629 4.9375 47.738 14.816-3.293 3.293-13.168 4.9375-26.336 8.2305-39.508 1.6445-13.168 6.5859-39.508 14.816-49.383 0-1.6445 6.5859-8.2305 8.2305-6.5859 1.6445 4.9375 1.6445 4.9375 6.5859 6.5859 3.293 1.6445 11.523 4.9375 11.523 9.875 1.6445 13.168-27.984 100.41-31.277 123.46-9.875 41.152-11.523 36.215-44.445 13.168z"/>
</svg>
