<?xml version="1.0" encoding="UTF-8"?>
<svg width="1200pt" height="1200pt" version="1.1" viewBox="0 0 1200 1200" xmlns="http://www.w3.org/2000/svg">
 <path d="m827.2 391.11c-2.7734-27.469-6.3242-54.887-11.41-82.031-4.2734-22.801-9.2656-46.117-18.551-67.477-1.9062-4.4023-4.0312-8.7109-6.5508-12.793-2.3867-3.8516-5.3516-8.9531-8.8203-11.809-8.9141-7.3438-22.078-8.8203-33.156-10.008-26.387-2.8203-53.363-0.94922-79.656 2.1836-12.445 1.4766-24.816 3.3359-37.152 5.5547 9.8164-42.395 5.6289-87.527-10.246-127.92-3.8516-9.8164-8.6992-27.527-22.859-23.746-4.9062 1.3086-8.7461 5.375-9.7578 10.367-1.3086 6.4336 3 12.395 5.3984 18.059 11.027 25.969 16.512 54.098 15.59 82.309-0.42188 12.602-2.0391 25.188-5.0742 37.43-0.67188 2.6875-1.2852 9.1797-4.1406 9.8164-6.3008 1.4531-12.602 2.9766-18.863 4.5859-24.227 6.2539-48.145 13.824-71.398 23.074-40.477 16.117-82.68 37.691-110.96 71.82-11.605 14.004-19.621 29.867-23.23 47.711-3.4688 17.184-5.7734 34.598-7.5703 52.031-4.9922 48.348-6.0234 97.141-4.8828 145.71 2.6758 113.06 16.262 228.42 51.406 336.3 28.906 88.766 79.117 190.18 173.84 222.55 21.875 7.4766 45.059 10.609 68.148 9.8047 19.273-0.66016 37.824-3.1797 54.445-13.453 34.465-21.359 54-62.137 67.754-98.688 18.672-49.547 29.328-102.06 37.309-154.25 7.5234-49.141 12.324-98.688 15.383-148.29 6.7188-109.33 6.0742-219.81-4.9922-328.86-4.9805-48.996 10.332 101.69 0 0zm-333.32-90.699c4.8945 1.5977 14.543 6.4805 19.379 3.4453 4.5859-2.8672 3.4805-10.055-1.7656-11.426-6.625-1.7148-13.199-3.6719-19.633-6.0234 48.781-23.629 102.35-38.328 155.73-47.016 24.203-3.9375 48.742-6.5898 73.297-6.6836 12.48-0.058594 25.211 0.40625 37.43 3.0703 1.1289 0.23828 2.2305 0.50391 3.3242 0.80469 0.35938 1.5117 0.67188 3.0352 0.97266 4.5469 0.61328 3.1328 1.1289 6.2773 1.5469 9.4453 0.97266 7.2344 1.4766 14.52 1.6094 21.828 0.058594 2.6172 1.1172 8.0742-1.0547 9.707-2.293 1.7539-4.8711 3.0859-7.5117 4.2344-5.2188 2.2812-10.715 3.8867-16.164 5.4961-12.684 3.7305-25.656 6.3828-38.723 8.3047-29.902 4.4023-60.371 5.8086-90.59 5.0156-15.121-0.39453-30.238-1.4023-45.277-3.0352-5.4609-0.58984-9.0234 5.9141-5.5781 10.199 1.957 2.4375 4.957 2.3984 7.8008 2.6875 4.1875 0.43359 8.3633 0.80469 12.551 1.1406 30.07 2.3867 60.336 2.375 90.406 0 17.148-1.3438 34.246-3.3477 51.098-6.8164 14.102-2.9023 29.258-6.3125 42.254-12.695-4.332 54.121-22.754 106.97-45.66 155.83-11.902 6.793-27.445 7.7656-40.922 8.7617-12.324 0.91016-24.707 1.0078-37.066 1.1992-5.0625 0.070312-8.1602 5.8555-5.3047 10.105 2.293 3.4453 5.8086 2.7461 9.3008 2.6055 14.508-0.22656 29.051-0.48047 43.488-2.125 7.5469-0.85156 15.059-2.0742 22.441-3.8633-18.527 36.926-40.297 72.254-64.766 105.54-2.7617 3.7578-5.5547 7.5-8.3867 11.207-1.3906 1.8125-2.4961 3.8164-4.5703 4.8594-2.293 1.1758-4.7031 2.1367-7.1523 2.9297-9.1445 2.9648-18.828 3.6367-28.332 4.6211-3.8516 0.39453-8.9766 0.058594-11.016 4.1055-1.668 3.2891-0.058594 7.4023 3.3711 8.7109 3.8633 1.4883 9.7578-0.38281 13.766-0.80469 5.4102-0.55078 10.824-1.1641 16.188-2.1719-29.27 35.219-62.113 67.934-99.254 94.859-33.625 24.383-71.746 44.844-112.88 52.633-9.457-57.648-14.832-115.97-16.812-174.34 8.4258 4.4297 17.641 6.707 26.762 9.2148 4.1641 1.1523 9.2656 3.457 13.621 3.457 4.2461 0 7.332-4.332 5.9531-8.3398-1.4414-4.1641-6.2891-4.5469-9.9492-5.5312-5.2188-1.4141-10.43-2.8438-15.613-4.3438-4.8359-1.3906-9.5508-2.9297-14.102-5.1719-4.8711-2.3867-7.1289-5.1133-7.2344-10.598-0.80469-42.18 0.10938-84.48 3.8516-126.52 8.1016 5.5664 18.707 10.969 28.355 13.211 4.6445 1.6797 9.457-2.6758 8.2305-7.4648-1.0938-4.3086-6.0469-5.1016-9.625-6.4453-8.9648-3.3828-18.77-7.3203-25.5-14.398 1.3438-12.457 2.9766-24.887 5.1953-37.223 1.5117-8.4844 3.1562-16.801 6.8398-24.648 3.6719-7.8477 8.7227-15 14.426-21.504 15.047-17.137 34.535-30.156 54.434-40.992 9.1289 4.043 11.109 4.5352 16.82 6.3945zm183.11 805.49c-16.859 2.3633-34.043 2.6406-50.914 0.16797 8.1602-8.9883 15.277-18.875 21.551-29.27 3.2891-5.4609 6.3359-11.074 9.2148-16.789 2.2812-4.5703 8.4102-12.695 3.9375-17.52-5.0039-5.4102-9.7188 0.37109-11.785 4.8242-3.0117 6.457-6.2539 12.805-9.7812 18.984-6.1094 10.645-13.117 20.797-21.254 30-1.8125 2.0391-3.6953 4.0312-5.6289 5.9766-1.8242 1.8359-6.5742-0.50391-8.9648-1.2344-6.8984-2.0742-13.645-4.6211-20.184-7.6211-12.109-5.5547-23.461-12.648-33.938-20.855-5.2188-4.0664-10.211-8.4102-15.012-12.973-2.4844-2.3516-4.8945-4.7773-7.2617-7.2461-1.7656-1.8359-0.35938-1.9062 0.875-3.6133 6.7695-11.426 12.805-23.293 18.109-35.461 9.9609-22.824 17.352-46.68 23.102-70.871 2.9531-12.434 5.4961-24.949 7.7656-37.523 0.875-4.8594 4.4883-13.801 0.26562-17.82-4.7148-4.4883-9.9492-0.011719-10.801 5.0508-8.7227 51.445-21.121 104.75-48.938 149.61-27.793-32.566-47.664-71.438-63.254-111.1-18.816-47.832-31.691-97.957-41.195-148.43 58.223-10.812 110.41-43.621 154.77-81.648 3.1797 10.164 4.8008 20.734 5.9141 31.297 0.40625 3.8633 0.79297 8.1484 5.4375 9.0234 4.0547 0.78125 7.8477-2.6641 7.4414-6.7812-0.99609-10.379-2.4102-20.773-5.0039-30.898-0.5625-2.2422-1.1992-4.4531-1.8828-6.6719-0.34766-1.1055-0.71875-2.207-1.0938-3.2891-0.81641-2.3398 0.058594-2.2422 1.7656-3.7812 3.9492-3.6016 7.8594-7.2734 11.711-10.98 30.984-29.855 58.801-62.977 83.699-98.062 8.1133 28.234 11.398 58.5 14.27 87.66 0.70703 7.0547 1.3086 14.125 1.8477 21.215 0.38281 5.125-1.0664 15.086 5.832 16.43 6.6602 1.2969 7.5703-5.4102 7.2461-10.199-0.53906-7.7539-1.1758-15.48-1.8828-23.23-2.6406-28.812-6.2383-58.008-12.84-86.219-0.80469-3.4219-1.6914-6.8281-2.6758-10.199-0.86328-2.9023-3.5273-7.332-1.8242-9.8867 4.2734-6.3125 8.4492-12.684 12.527-19.117 7.9219-12.504 15.48-25.223 22.668-38.148 13.055-23.473 24.84-47.652 35.113-72.469 8.7852 22.211 14.914 45.516 19.969 68.82 0.99609 4.6445 5.1602 9.0977 10.141 5.6172 4.8594-3.4062 1.6914-10.488 0.66016-15.047-2.6523-11.617-5.6172-23.16-9.0234-34.57-3.3594-11.258-7.0781-22.414-11.578-33.266-1.1406-2.7461-2.3164-5.4727-3.5508-8.1719 1.2852-3.3945 2.5547-6.8164 3.7695-10.234 2.2305-6.1797 4.3438-12.383 6.3594-18.637 7.6914-24.023 13.754-48.648 17.184-73.668 9.0234 49.332 13.355 99.539 16.199 149.57 3.168 56.074 3.9258 112.31 2.6758 168.47-1.8828-14.844-4.0195-29.676-6.2266-44.496-0.99609-6.8047-2.0391-13.609-3.0352-20.426-0.42188-2.7227-0.34766-6.0703-2.3164-8.2188-2.0039-2.1953-5.375-2.6758-7.9219-1.1289-5.2695 3.2148-2.207 11.34-1.4766 16.141 0.99609 6.6367 1.9922 13.262 2.9648 19.895 1.9219 13.031 3.7578 26.062 5.4375 39.121 3.5625 28.02 6.2031 56.148 7.2734 84.371 1.1406 29.965-2.7227 60.156-6.0859 89.914-6.0859 53.676-14.578 107.47-29.09 159.57-5.7344 20.566-12.445 40.922-20.977 60.492-9.2148 21.145-20.617 42.73-37.656 58.668-9.1094 8.4766-20.16 15.148-32.641 16.887-9.0742 1.2734 27.023-3.7891 0 0zm-93.914-242.11c-0.48047 3.7695-0.44531 8.2812-4.6328 9.875-3.875 1.4766-8.2305-1.2852-8.5195-5.4258-0.27734-4.0781 0.63672-10.008 5.207-11.281 4.2617-1.2109 8.5 2.4492 7.9453 6.832-0.21484 1.6172 0.43359-3.4336 0 0zm3.3984-31.188c-0.3125 3.3125-0.63672 6.625-0.97266 9.9258-0.26563 2.6406-0.085938 5.8203-1.8008 8.0273-3.4219 4.3789-10.703 2.2812-11.23-3.2773-0.27734-2.9531 0.53906-6.3008 0.83984-9.2539 0.3125-3.1445-0.097656-7.3906 2.0156-9.9844 3.8516-4.7031 11.699-1.4883 11.148 4.5625-0.46875 5.0273 0.3125-3.4688 0 0zm2.0859-73.742c1.1875 12.996 0.46875 26.062-0.16797 39.047-0.21484 4.5234 1.0195 12.012-2.3867 15.527-3.6719 3.793-9.7422 1.4414-10.57-3.6016-0.89844-5.4609 0.37109-11.965 0.63672-17.484 0.32422-6.5742 0.58984-13.188 0.52734-19.766-0.035156-4.7383-2.3867-13.199 0.85156-17.125 3.5039-4.207 10.617-2.0703 11.109 3.4023 1.1641 12.66-0.29688-3.4688 0 0zm83.496 265.39c-1.5469 4.2734-2.7617 11.914-8.0625 12.984-4.7891 0.97266-8.8789-3.9258-7.0938-8.4727 1.6328-4.1406 2.6523-11.484 7.7031-12.758 4.8125-1.207 9.1445 3.6289 7.4531 8.2461-1.1133 3.0742 1.1875-3.25 0 0zm20.664-77.625c-2.4375 12.887-5.2578 25.738-8.5547 38.449-1.1289 4.3555-1.7539 12.238-5.2578 15.359-4.1523 3.6953-10.906 0.33594-10.465-5.1953 0.44531-5.5664 3.1094-11.555 4.4766-16.98 1.668-6.6133 3.2031-13.246 4.6211-19.906 0.74219-3.4922 1.4414-6.9961 2.125-10.488 0.55078-2.832 0.73047-5.8438 3.3242-7.6211 4.5234-3.0742 10.738 0.98047 9.7305 6.3828-3.4805 18.43 0.625-3.4336 0 0zm6.4805-40.691c-0.48047 3.6484-0.99609 7.2617-1.5234 10.906-0.49219 3.3828-0.34766 8.2422-2.2578 11.184-3.5898 5.6172-12.551 2.207-11.508-4.3555 0.53906-3.4688 1.0547-6.9492 1.5586-10.414 0.50391-3.4453 0.25391-8.2812 2.0625-11.34 3.3867-5.75 12.543-2.6172 11.668 4.0195-0.91016 6.7539 0.46875-3.4453 0 0zm8.0391-119.68c-0.21484 18.719-0.76953 37.441-1.8711 56.125-0.51562 8.6758-1.1523 17.352-1.9453 26.016-0.27734 3.3125-1.5703 6.3828-5.2188 7.0938-3.5391 0.68359-7.043-1.8828-7.4414-5.4844-0.39453-3.7422 0.60156-8.0625 0.88672-11.82 0.32422-4.1406 0.63672-8.2578 0.875-12.395 0.60156-9.2539 1.043-18.527 1.3789-27.793 0.35938-9.9961 0.58984-20.016 0.70703-30.023 0.046876-3.6016 1.043-7.1641 5.125-7.9453 3.8594-0.76953 7.543 2.3008 7.5039 6.2266-0.35938 31.148 0.027343-3.4805 0 0zm0.011719-36.312c0.035156 3.4805 0.058593 6.9727 0.070312 10.453 0 2.832 0.60156 6.2656-1.0664 8.7852-3.0703 4.6328-10.273 3.1562-11.387-2.2578-0.625-3.1562-0.13281-6.8281-0.14453-10.031-0.023438-3.2383-0.91016-7.6562 0.99609-10.523 3.3984-5.1016 11.484-2.4883 11.531 3.5742 0.050781 5.2305-0.023438-3.4805 0 0zm-13.293-23.078c-0.17969-4.0664-0.34766-8.8086 4.5859-10.066 3.8281-0.94922 7.668 1.8945 7.8359 5.832 0.17969 4.0781 0.33594 8.8438-4.6211 10.094-3.793 0.94531-7.6211-1.9219-7.8008-5.8594-0.050781-1.2227 0.14453 3.3828 0 0zm94.57-181.5c-5.1836 0-5.9141-3.9375-6.6719-8.0156-0.85156-4.8008-1.5586-12.191 5.3633-12.434 6.5391-0.23828 6.457 6.7695 7.2109 11.352 0.76953 4.5273-0.33203 9.0977-5.9023 9.0977zm-257.71-242.1c0.98438-5.6289 6.3242-5.2695 10.633-4.5469 4.6094 0.75781 11.328 1.4883 10.344 7.9805-0.875 5.6992-6.3242 5.4258-10.656 4.7266-4.6328-0.75781-11.449-1.6562-10.32-8.1602zm-42.23 288.72c18.434 2.7461 36.926 5.2422 55.512 6.5742 8.8789 0.64844 17.773 1.0195 26.676 1.043 8.125 0.023438 8.0742 12.406-0.035156 12.406-17.641 0-35.258-1.3672-52.766-3.4336-9.8281-1.1641-19.645-2.5195-29.438-3.9727-3.5391-0.51562-6.9492-1.9805-7.1758-6.0859-0.19922-3.9258 3.3516-7.0938 7.2266-6.5312 30.445 4.5234-3.4297-0.51562 0 0zm-46.547-1.9453c1.7891-8.7227 18.898-5.2812 17.184 3.457-1.7266 8.8086-18.984 5.3281-17.184-3.457zm144.7-122.5c0.42188-8.7734 12.926-5.6992 18.863-5.7227 5.9414-0.035156 18.301-1.7539 18.145 7.1758-0.17969 8.5547-11.52 6.3359-16.906 6.0859-5.8086-0.26562-20.566 1.7852-20.102-7.5391 0.15625-3.4688-0.17969 3.4688 0 0zm-25.559-1.7617c0.67188-8.8906 18.098-7.6094 17.473 1.2734-0.63672 8.9375-18.156 7.6523-17.473-1.2734zm-113.04-17.906c2.0898-8.4492 14.039-3.0234 19.43-1.8477 8.2305 1.8242 16.5 3.4453 24.805 4.8711 8.8672 1.5352 17.762 2.8672 26.688 4.0547 5.5547 0.74219 22.547-0.15625 19.441 9.875-2.4102 7.7656-15.324 3.3711-20.844 2.6406-8.9141-1.1875-17.82-2.5078-26.699-4.0312-8.3164-1.4414-16.621-3.0352-24.875-4.8359-5.5391-1.2109-20.129-1.8711-17.945-10.727z"/>
</svg>
