<?xml version="1.0" encoding="UTF-8"?>
<svg width="1200pt" height="1200pt" version="1.1" viewBox="0 0 1200 1200" xmlns="http://www.w3.org/2000/svg">
 <path d="m1072.1 319.78h-60c0 227.26-184.87 412.13-412.12 412.13-227.26 0-412.13-184.87-412.13-412.13h-60c0 250.25 195.73 455.53 442.13 471.07v68.578l-196.3 0.003907v60h196.29v265.57h60v-265.57h196.29v-60h-196.29v-68.578c246.39-15.543 442.13-220.83 442.13-471.07z"/>
 <path d="m600 624.56c168.04 0 304.78-136.73 304.78-304.78 0-168.05-136.73-304.79-304.78-304.79-168.07 0-304.78 136.73-304.78 304.78 0 168.05 136.72 304.79 304.78 304.79zm0-549.56c134.98 0 244.78 109.8 244.78 244.78 0 134.98-109.8 244.79-244.78 244.79s-244.78-109.8-244.78-244.78c0-134.97 109.8-244.79 244.78-244.79z"/>
</svg>
